<mxfile host="app.diagrams.net" modified="2021-01-29T07:14:14.183Z" agent="5.0 (Macintosh; Intel Mac OS X 10_15_4) AppleWebKit/537.36 (KHTML, like Gecko) Chrome/75.0.3770.80 Safari/537.36" etag="S2ZZ-YviScgFkiGHCldY" version="14.2.7" type="github">
  <diagram id="IdwK2fAH8-3tfjtsPkUA" name="Page-1">
    <mxGraphModel dx="1666" dy="771" grid="1" gridSize="10" guides="1" tooltips="1" connect="1" arrows="1" fold="1" page="1" pageScale="1" pageWidth="827" pageHeight="1169" math="0" shadow="0">
      <root>
        <mxCell id="0" />
        <mxCell id="1" parent="0" />
        <mxCell id="2ur_N6kX9veUPNMjmb-i-2" value="" style="rounded=0;whiteSpace=wrap;html=1;fillColor=#7EA6E0;" vertex="1" parent="1">
          <mxGeometry x="260" y="640" width="440" height="70" as="geometry" />
        </mxCell>
        <mxCell id="2ur_N6kX9veUPNMjmb-i-18" value="redis&amp;nbsp;的&amp;nbsp; list&amp;nbsp;结构" style="text;html=1;align=center;verticalAlign=middle;resizable=0;points=[];autosize=1;" vertex="1" parent="1">
          <mxGeometry x="405" y="710" width="110" height="20" as="geometry" />
        </mxCell>
        <mxCell id="2ur_N6kX9veUPNMjmb-i-19" value="" style="shape=table;html=1;whiteSpace=wrap;startSize=0;container=1;collapsible=0;childLayout=tableLayout;fillColor=#97D077;" vertex="1" parent="1">
          <mxGeometry x="290" y="655" width="40" height="40" as="geometry" />
        </mxCell>
        <mxCell id="2ur_N6kX9veUPNMjmb-i-20" value="" style="shape=partialRectangle;html=1;whiteSpace=wrap;collapsible=0;dropTarget=0;pointerEvents=0;fillColor=none;top=0;left=0;bottom=0;right=0;points=[[0,0.5],[1,0.5]];portConstraint=eastwest;" vertex="1" parent="2ur_N6kX9veUPNMjmb-i-19">
          <mxGeometry width="40" height="40" as="geometry" />
        </mxCell>
        <mxCell id="2ur_N6kX9veUPNMjmb-i-21" value="消息体" style="shape=partialRectangle;html=1;whiteSpace=wrap;connectable=0;overflow=hidden;fillColor=none;top=0;left=0;bottom=0;right=0;" vertex="1" parent="2ur_N6kX9veUPNMjmb-i-20">
          <mxGeometry width="40" height="40" as="geometry" />
        </mxCell>
        <mxCell id="2ur_N6kX9veUPNMjmb-i-22" value="" style="shape=table;html=1;whiteSpace=wrap;startSize=0;container=1;collapsible=0;childLayout=tableLayout;fillColor=#97D077;" vertex="1" parent="1">
          <mxGeometry x="425" y="655" width="40" height="40" as="geometry" />
        </mxCell>
        <mxCell id="2ur_N6kX9veUPNMjmb-i-23" value="" style="shape=partialRectangle;html=1;whiteSpace=wrap;collapsible=0;dropTarget=0;pointerEvents=0;fillColor=none;top=0;left=0;bottom=0;right=0;points=[[0,0.5],[1,0.5]];portConstraint=eastwest;" vertex="1" parent="2ur_N6kX9veUPNMjmb-i-22">
          <mxGeometry width="40" height="40" as="geometry" />
        </mxCell>
        <mxCell id="2ur_N6kX9veUPNMjmb-i-24" value="消息体" style="shape=partialRectangle;html=1;whiteSpace=wrap;connectable=0;overflow=hidden;fillColor=none;top=0;left=0;bottom=0;right=0;" vertex="1" parent="2ur_N6kX9veUPNMjmb-i-23">
          <mxGeometry width="40" height="40" as="geometry" />
        </mxCell>
        <mxCell id="2ur_N6kX9veUPNMjmb-i-25" value="" style="shape=table;html=1;whiteSpace=wrap;startSize=0;container=1;collapsible=0;childLayout=tableLayout;fillColor=#97D077;" vertex="1" parent="1">
          <mxGeometry x="360" y="655" width="40" height="40" as="geometry" />
        </mxCell>
        <mxCell id="2ur_N6kX9veUPNMjmb-i-26" value="" style="shape=partialRectangle;html=1;whiteSpace=wrap;collapsible=0;dropTarget=0;pointerEvents=0;fillColor=none;top=0;left=0;bottom=0;right=0;points=[[0,0.5],[1,0.5]];portConstraint=eastwest;" vertex="1" parent="2ur_N6kX9veUPNMjmb-i-25">
          <mxGeometry width="40" height="40" as="geometry" />
        </mxCell>
        <mxCell id="2ur_N6kX9veUPNMjmb-i-27" value="消息体" style="shape=partialRectangle;html=1;whiteSpace=wrap;connectable=0;overflow=hidden;fillColor=none;top=0;left=0;bottom=0;right=0;" vertex="1" parent="2ur_N6kX9veUPNMjmb-i-26">
          <mxGeometry width="40" height="40" as="geometry" />
        </mxCell>
        <mxCell id="2ur_N6kX9veUPNMjmb-i-28" value="" style="shape=table;html=1;whiteSpace=wrap;startSize=0;container=1;collapsible=0;childLayout=tableLayout;fillColor=#97D077;" vertex="1" parent="1">
          <mxGeometry x="490" y="655" width="40" height="40" as="geometry" />
        </mxCell>
        <mxCell id="2ur_N6kX9veUPNMjmb-i-29" value="" style="shape=partialRectangle;html=1;whiteSpace=wrap;collapsible=0;dropTarget=0;pointerEvents=0;fillColor=none;top=0;left=0;bottom=0;right=0;points=[[0,0.5],[1,0.5]];portConstraint=eastwest;" vertex="1" parent="2ur_N6kX9veUPNMjmb-i-28">
          <mxGeometry width="40" height="40" as="geometry" />
        </mxCell>
        <mxCell id="2ur_N6kX9veUPNMjmb-i-30" value="消息体" style="shape=partialRectangle;html=1;whiteSpace=wrap;connectable=0;overflow=hidden;fillColor=none;top=0;left=0;bottom=0;right=0;" vertex="1" parent="2ur_N6kX9veUPNMjmb-i-29">
          <mxGeometry width="40" height="40" as="geometry" />
        </mxCell>
        <mxCell id="2ur_N6kX9veUPNMjmb-i-97" value="生产者" style="ellipse;whiteSpace=wrap;html=1;shadow=1;strokeColor=#000000;fillColor=#67AB9F;" vertex="1" parent="1">
          <mxGeometry x="50" y="662.5" width="80" height="35" as="geometry" />
        </mxCell>
        <mxCell id="2ur_N6kX9veUPNMjmb-i-98" value="" style="endArrow=classic;html=1;entryX=-0.005;entryY=0.629;entryDx=0;entryDy=0;exitX=1;exitY=0.5;exitDx=0;exitDy=0;entryPerimeter=0;" edge="1" parent="1" source="2ur_N6kX9veUPNMjmb-i-97">
          <mxGeometry relative="1" as="geometry">
            <mxPoint x="21.039999999999964" y="678.0050000000001" as="sourcePoint" />
            <mxPoint x="257.8000000000002" y="681.03" as="targetPoint" />
            <Array as="points">
              <mxPoint x="160" y="681" />
            </Array>
          </mxGeometry>
        </mxCell>
        <mxCell id="2ur_N6kX9veUPNMjmb-i-99" value="&lt;div style=&quot;text-align: left&quot;&gt;入队列 (lpush)&lt;/div&gt;" style="edgeLabel;resizable=0;html=1;align=center;verticalAlign=middle;" connectable="0" vertex="1" parent="2ur_N6kX9veUPNMjmb-i-98">
          <mxGeometry relative="1" as="geometry">
            <mxPoint x="-3.9800000000000093" y="-1.0099999999999996" as="offset" />
          </mxGeometry>
        </mxCell>
        <mxCell id="2ur_N6kX9veUPNMjmb-i-120" value="" style="shape=table;html=1;whiteSpace=wrap;startSize=0;container=1;collapsible=0;childLayout=tableLayout;fillColor=#97D077;" vertex="1" parent="1">
          <mxGeometry x="640" y="657.5" width="40" height="40" as="geometry" />
        </mxCell>
        <mxCell id="2ur_N6kX9veUPNMjmb-i-121" value="" style="shape=partialRectangle;html=1;whiteSpace=wrap;collapsible=0;dropTarget=0;pointerEvents=0;fillColor=none;top=0;left=0;bottom=0;right=0;points=[[0,0.5],[1,0.5]];portConstraint=eastwest;" vertex="1" parent="2ur_N6kX9veUPNMjmb-i-120">
          <mxGeometry width="40" height="40" as="geometry" />
        </mxCell>
        <mxCell id="2ur_N6kX9veUPNMjmb-i-122" value="消息体" style="shape=partialRectangle;html=1;whiteSpace=wrap;connectable=0;overflow=hidden;fillColor=none;top=0;left=0;bottom=0;right=0;" vertex="1" parent="2ur_N6kX9veUPNMjmb-i-121">
          <mxGeometry width="40" height="40" as="geometry" />
        </mxCell>
        <mxCell id="2ur_N6kX9veUPNMjmb-i-123" value="" style="shape=table;html=1;whiteSpace=wrap;startSize=0;container=1;collapsible=0;childLayout=tableLayout;fillColor=#97D077;" vertex="1" parent="1">
          <mxGeometry x="570" y="657.5" width="40" height="40" as="geometry" />
        </mxCell>
        <mxCell id="2ur_N6kX9veUPNMjmb-i-124" value="" style="shape=partialRectangle;html=1;whiteSpace=wrap;collapsible=0;dropTarget=0;pointerEvents=0;fillColor=none;top=0;left=0;bottom=0;right=0;points=[[0,0.5],[1,0.5]];portConstraint=eastwest;" vertex="1" parent="2ur_N6kX9veUPNMjmb-i-123">
          <mxGeometry width="40" height="40" as="geometry" />
        </mxCell>
        <mxCell id="2ur_N6kX9veUPNMjmb-i-125" value="消息体" style="shape=partialRectangle;html=1;whiteSpace=wrap;connectable=0;overflow=hidden;fillColor=none;top=0;left=0;bottom=0;right=0;" vertex="1" parent="2ur_N6kX9veUPNMjmb-i-124">
          <mxGeometry width="40" height="40" as="geometry" />
        </mxCell>
        <mxCell id="2ur_N6kX9veUPNMjmb-i-126" value="消费者" style="ellipse;whiteSpace=wrap;html=1;shadow=1;strokeColor=#000000;fillColor=#B5739D;" vertex="1" parent="1">
          <mxGeometry x="827" y="667.5" width="60" height="30" as="geometry" />
        </mxCell>
        <mxCell id="2ur_N6kX9veUPNMjmb-i-127" value="" style="endArrow=classic;html=1;exitX=0.998;exitY=0.614;exitDx=0;exitDy=0;exitPerimeter=0;" edge="1" parent="1" source="2ur_N6kX9veUPNMjmb-i-2">
          <mxGeometry width="50" height="50" relative="1" as="geometry">
            <mxPoint x="717" y="682" as="sourcePoint" />
            <mxPoint x="827" y="682" as="targetPoint" />
          </mxGeometry>
        </mxCell>
        <mxCell id="2ur_N6kX9veUPNMjmb-i-128" value="出队列（rpop）" style="edgeLabel;html=1;align=center;verticalAlign=middle;resizable=0;points=[];" vertex="1" connectable="0" parent="2ur_N6kX9veUPNMjmb-i-127">
          <mxGeometry x="-0.3455" y="3" relative="1" as="geometry">
            <mxPoint x="22" y="0.5" as="offset" />
          </mxGeometry>
        </mxCell>
      </root>
    </mxGraphModel>
  </diagram>
</mxfile>
